<?xml version="1.0" encoding="utf-8"?>
<!-- Generator: Adobe Illustrator 16.0.0, SVG Export Plug-In . SVG Version: 6.00 Build 0)  -->
<!DOCTYPE svg PUBLIC "-//W3C//DTD SVG 1.1//EN" "http://www.w3.org/Graphics/SVG/1.1/DTD/svg11.dtd">
<svg version="1.1" id="Capa_1" xmlns="http://www.w3.org/2000/svg" xmlns:xlink="http://www.w3.org/1999/xlink" x="0px" y="0px"
	 width="300px" height="75.375px" viewBox="0 0 300 75.375" enable-background="new 0 0 300 75.375" xml:space="preserve">
<path d="M45.278,35.823v4.215c0,10.375,1.865,14.997,8.188,14.997c7.376,0,10.538-6.242,11.429-10.62l1.459,0.163
	c-1.054,5.025-3.729,13.213-17.266,13.213c-12.484,0-19.455-6.972-19.455-19.618c0-13.618,8.269-20.589,21.644-20.589
	c9.89,0,14.834,4.216,14.834,10.295c0,5.025-2.675,7.62-6.728,7.62c-4.215,0-7.215-2.189-7.215-6.729
	c0-0.729,0.082-1.783,0.406-2.918h2.675c0.406-1.136,0.567-2.108,0.567-2.919c0-2.756-1.621-3.891-3.891-3.891
	C47.225,19.043,45.278,23.745,45.278,35.823"/>
<path d="M90.021,17.584c13.618,0,20.104,6.404,20.104,19.536c0,13.294-6.161,20.671-20.59,20.671
	c-13.619,0-20.509-7.296-20.509-19.942C69.025,24.555,76.969,17.584,90.021,17.584 M94.56,34.121c0-8.755-0.243-15.078-4.783-15.078
	c-4.944,0-5.188,6.323-5.188,15.483v6.323c0,9.403,0.162,15.483,5.107,15.483c4.621,0,4.864-4.783,4.864-15.321V34.121z"/>
<path d="M131.927,18.395v7.458c1.296-4.053,3.972-8.269,11.429-8.269c5.755,0,10.052,2.514,11.43,8.755
	c1.296-4.053,4.621-8.755,11.916-8.755c7.053,0,11.917,3.729,11.917,13.538v24.4h4.539v1.458h-22.454v-1.458h2.837V29.175
	c0-6.89-0.892-7.7-2.351-7.7c-2.918,0-5.917,4.377-5.917,11.187v22.86h2.918v1.458h-20.833v-1.458h2.837V29.175
	c0-6.89-0.893-7.7-2.351-7.7c-3,0-5.917,5.107-5.917,11.672v22.374h2.918v1.458h-22.454v-1.458h4.458V19.854h-4.458v-1.458H131.927z
	"/>
<path d="M205.604,17.584c12.727,0,18.158,6.404,17.672,18.482h-22.86v3.161c0,9.566,1.702,16.05,9.565,16.05
	c5.998,0,10.052-3.81,11.835-10.052l1.459,0.244c-1.864,6.971-6.08,12.322-17.59,12.322c-14.429,0-20.915-8.269-20.915-20.023
	C184.771,23.745,194.337,17.584,205.604,17.584 M208.847,34.445v-3.972c0-8.512-0.648-11.349-3.972-11.349
	c-2.837,0-4.377,2.756-4.377,11.349v3.972H208.847z"/>
<path d="M245.727,33.796v21.725h5.756v1.458H226.19v-1.458h4.458V19.854h-4.458v-1.458h19.536v7.782
	c1.459-5.755,5.999-8.593,10.862-8.593c4.783,0,8.593,2.514,8.593,8.674c0,4.62-2.432,7.701-6.81,7.701
	c-5.431,0-8.025-3.405-6.323-9.161h2.918c1.621-3.323,0-4.134-1.702-4.134C249.374,20.665,245.727,26.5,245.727,33.796"/>
<polygon points="9.611,4.711 29.634,4.711 29.634,0 4.901,0 4.901,10.298 9.611,10.298 "/>
<path d="M287.559,4.711v5.79c1.519-0.688,3.182-0.61,4.711,0.256V0h-26.997v4.711H287.559z"/>
<path d="M293.641,14.023c-1.64-1.745-3.762-1.738-3.762-1.738s-2.122-0.007-3.761,1.738c-3.423,3.643-6.322,11.488-6.359,16.503
	c-0.058,7.866,2.741,11.88,5.421,13.37c0.326,0.181,0.652,0.359,0.976,0.542c0.541,0.302,1.163,0.803,1.331,1.314h0.013l0.06,24.911
	h-22.286v4.711h26.999V45.753c0.169-0.512,0.791-1.013,1.331-1.314c0.325-0.183,0.651-0.361,0.977-0.542
	c2.679-1.49,5.478-5.504,5.42-13.37C299.962,25.511,297.063,17.666,293.641,14.023"/>
<path d="M9.611,70.664V45.753h0.029c0.293-0.4,2.186-2.205,2.893-2.764c1.208-0.958,1.802-2.238,1.942-3.705
	c0.132-1.39,0.214-2.806,0.115-4.194c-0.298-4.161-0.694-8.313-1.052-12.469c-0.295-3.429-0.59-6.858-0.89-10.288
	c-0.003-0.026-0.018-0.051-0.03-0.077h-0.969v0.961c-0.001,6.916-0.002,13.832-0.001,20.748c0,1.415-0.307,1.979-1.086,1.967
	c-0.751-0.011-1.089-0.559-1.096-1.904c-0.006-1.321-0.009-2.643-0.008-3.965c0.001-1.322,0.004-2.644,0.008-3.965
	c0.015-4.493,0.039-8.988,0.053-13.481c0-0.113-0.022-0.232-0.047-0.36H8.429c0,2.218-0.001,4.419-0.001,6.611
	c0,2.191,0,4.375,0.003,6.556c0.003,3.058,0.026,6.115,0.025,9.173c0,0.709-0.284,1.314-1.073,1.316
	c-0.81,0-1.164-0.565-1.161-1.343c0.003-0.892,0.041-1.783,0.042-2.675c0.003-3.183-0.004-6.367-0.004-9.549
	c-0.001-1.678-0.001-3.357-0.001-5.037c0-1.681,0-3.363,0-5.052H5.173c0,0.221,0,0.41,0.001,0.587
	c0.001,2.15-0.002,4.301-0.002,6.451c0,2.15,0.001,4.3,0.011,6.45c0.008,2.005,0.044,4.009,0.073,6.013
	c0.01,0.667,0.019,1.335,0.025,2.003c0.004,0.381-0.025,0.766-0.078,1.144c-0.035,0.25-0.114,0.46-0.234,0.625
	c-0.201,0.274-0.517,0.416-0.931,0.385c-0.419-0.031-0.697-0.225-0.85-0.529c-0.091-0.183-0.138-0.404-0.143-0.655
	c-0.008-0.43-0.022-0.86-0.035-1.291c-0.012-0.43-0.023-0.86-0.021-1.29c0.016-6.313,0.04-12.628,0.06-18.94
	c0-0.152,0-0.306,0-0.463c0-0.158,0-0.321,0-0.49H1.975c-0.024,0.211-0.046,0.395-0.061,0.569
	c-0.445,5.337-0.902,10.671-1.328,16.009c-0.229,2.89-0.49,5.781-0.58,8.675c-0.074,2.385,0.578,4.544,2.693,6.01
	c0.441,0.307,1.946,1.702,2.203,2.057v0.178v29.623h24.732v-4.711H9.611z"/>
<path d="M2.988,32.149L2.988,32.149c0.016-6.313,0.039-12.627,0.06-18.94c0-0.151,0-0.305,0-0.463c0,0.158,0,0.312,0,0.463
	C3.027,19.522,3.004,25.836,2.988,32.149"/>
<path d="M5.174,12.843L5.174,12.843c0-0.177,0-0.367,0-0.587C5.173,12.476,5.173,12.666,5.174,12.843"/>
<path d="M5.183,25.744c0.008,2.005,0.044,4.009,0.073,6.013C5.227,29.752,5.191,27.749,5.183,25.744
	c-0.009-2.15-0.011-4.3-0.011-6.45C5.171,21.443,5.173,23.594,5.183,25.744"/>
<path d="M9.459,30.062c0.001-1.322,0.004-2.644,0.008-3.965c0.015-4.493,0.039-8.988,0.053-13.481
	c-0.014,4.494-0.038,8.988-0.053,13.481C9.463,27.418,9.46,28.74,9.459,30.062"/>
<path d="M6.259,17.307c0-1.681,0-3.364,0-5.052C6.259,13.943,6.259,15.626,6.259,17.307"/>
<path d="M8.431,25.423c0.003,3.058,0.026,6.115,0.025,9.173C8.458,31.538,8.435,28.48,8.431,25.423
	c-0.002-2.182-0.003-4.365-0.003-6.557C8.428,21.058,8.429,23.241,8.431,25.423"/>
<path d="M6.264,31.894c-0.001,0.892-0.039,1.783-0.042,2.675C6.225,33.677,6.262,32.786,6.264,31.894"/>
</svg>
